<!--?xml version="1.0" encoding="UTF-8"?-->
<svg width="152px" height="32px" viewBox="0 0 152 32" version="1.1" xmlns="http://www.w3.org/2000/svg" xmlns:xlink="http://www.w3.org/1999/xlink" style="">
    <!-- Generator: Sketch 52.2 (67145) - http://www.bohemiancoding.com/sketch -->
    <title>Group</title>
    <desc>Created with Sketch.</desc>
    <g id="Page-1" stroke="none" stroke-width="1" fill="none" fill-rule="evenodd">
        <g id="Homepage" transform="translate(-130.000000, -75.000000)">
            <g id="Group" transform="translate(130.000000, 75.000000)">
                <path d="M99.9473684,1 L99.9473684,31 L129.947368,31 L129.947368,1 L99.9473684,1 Z" id="Rectangle" stroke="#000000" stroke-width="2" class="RVIwHlKR_0" fill="#fff265"></path>
                <path d="M0.429383671,26.0210526 C0.37478925,26.4140351 0.593166933,26.6666667 0.948030666,26.6666667 L3.40477959,26.6666667 C3.65045449,26.6666667 3.86883217,26.4421053 3.89612938,26.245614 L5.47936758,15.6070175 L5.56125921,15.6070175 L10.3928654,26.6385965 C10.4747571,26.8070175 10.6112431,26.9473684 10.856918,26.9473684 L11.3482678,26.9473684 C11.5939427,26.9473684 11.7577259,26.8070175 11.8123204,26.6385965 L16.5893322,15.6070175 L16.6712238,15.6070175 L18.2817592,26.245614 C18.3363536,26.4421053 18.5547313,26.6666667 18.8004062,26.6666667 L21.2844523,26.6666667 C21.6393161,26.6666667 21.8576938,26.4140351 21.7758021,26.0210526 L18.5547313,7.15789474 C18.5274341,6.93333333 18.3636508,6.73684211 18.0633815,6.73684211 L17.6266262,6.73684211 C17.3809513,6.73684211 17.2444652,6.84912281 17.1625736,7.01754386 L11.1571873,20.2666667 L11.0752957,20.2666667 L5.06990942,7.01754386 C4.98801779,6.84912281 4.82423453,6.73684211 4.60585685,6.73684211 L4.16910148,6.73684211 C3.86883217,6.73684211 3.70504891,6.93333333 3.6777517,7.15789474 L0.429383671,26.0210526 Z M25.5155199,26.1333333 C25.5155199,26.4140351 25.7611948,26.6666667 26.0341669,26.6666667 L28.5728075,26.6666667 C28.8457796,26.6666667 29.0914545,26.4140351 29.0914545,26.1333333 L29.0914545,7.55087719 C29.0914545,7.27017544 28.8457796,7.01754386 28.5728075,7.01754386 L26.0341669,7.01754386 C25.7611948,7.01754386 25.5155199,7.27017544 25.5155199,7.55087719 L25.5155199,26.1333333 Z M34.0595468,26.1333333 C34.0595468,26.4140351 34.3052216,26.6666667 34.5781937,26.6666667 L37.0622399,26.6666667 C37.3625092,26.6666667 37.5808869,26.4140351 37.5808869,26.1333333 L37.5808869,14.0631579 L37.6081841,14.0631579 L49.018418,26.9473684 L49.673551,26.9473684 C49.9465231,26.9473684 50.192198,26.722807 50.192198,26.4421053 L50.192198,7.55087719 C50.192198,7.27017544 49.9465231,7.01754386 49.673551,7.01754386 L47.1622077,7.01754386 C46.8619384,7.01754386 46.6435607,7.27017544 46.6435607,7.55087719 L46.6435607,19.1438596 L46.6162635,19.1438596 L35.260624,6.73684211 L34.5781937,6.73684211 C34.3052216,6.73684211 34.0595468,6.96140351 34.0595468,7.24210526 L34.0595468,26.1333333 Z M55.1602903,26.1333333 L55.1602903,7.55087719 C55.1602903,7.27017544 55.378668,7.01754386 55.6516401,7.01754386 L62.1210789,7.01754386 C67.3894405,7.01754386 71.7023997,11.4245614 71.7023997,16.8140351 C71.7023997,22.2596491 67.3894405,26.6666667 62.1210789,26.6666667 L55.6516401,26.6666667 C55.378668,26.6666667 55.1602903,26.4140351 55.1602903,26.1333333 Z M58.6816304,23.2421053 L61.7935124,23.2421053 C65.3421497,23.2421053 67.9353847,20.4912281 67.9353847,16.8140351 C67.9353847,13.1649123 65.3421497,10.4140351 61.7935124,10.4140351 L58.6816304,10.4140351 L58.6816304,23.2421053 Z M81.338315,26.1333333 L81.338315,7.55087719 C81.338315,7.27017544 81.5566927,7.01754386 81.856962,7.01754386 L88.1080231,7.01754386 C91.3563912,7.01754386 93.8677345,9.26315789 93.8677345,12.2105263 C93.8677345,14.3719298 92.1480103,16.0561404 90.8650414,16.6736842 C92.3117935,17.1508772 94.4136787,18.6666667 94.4136787,21.2491228 C94.4136787,24.3929825 91.7931465,26.6666667 88.4628869,26.6666667 L81.856962,26.6666667 C81.5566927,26.6666667 81.338315,26.4140351 81.338315,26.1333333 Z M84.8596551,15.2701754 L87.7804566,15.2701754 C89.1726143,15.2701754 90.1280167,14.1473684 90.1280167,12.7438596 C90.1280167,11.3403509 89.1726143,10.3578947 87.7804566,10.3578947 L84.8596551,10.3578947 L84.8596551,15.2701754 Z M84.8596551,23.354386 L88.1626176,23.354386 C89.5274781,23.354386 90.6193665,22.2596491 90.6193665,20.8 C90.6193665,19.3964912 89.254506,18.3578947 87.835051,18.3578947 L84.8596551,18.3578947 L84.8596551,23.354386 Z M135.458737,25.8807018 C135.24036,26.245614 135.458737,26.6666667 135.950087,26.6666667 L138.898186,26.6666667 C139.116564,26.6666667 139.280347,26.5263158 139.362239,26.4140351 L143.211145,19.9859649 L143.293037,19.9859649 L147.196538,26.4140351 C147.251132,26.5263158 147.442213,26.6666667 147.66059,26.6666667 L150.608689,26.6666667 C151.072742,26.6666667 151.291119,26.2736842 151.072742,25.8807018 L145.394922,16.5894737 L150.881661,7.80350877 C151.100039,7.43859649 150.881661,7.01754386 150.417609,7.01754386 L147.251132,7.01754386 C147.032755,7.01754386 146.868971,7.15789474 146.814377,7.27017544 L143.26574,13.2210526 L143.238442,13.2210526 L139.7444,7.27017544 C139.662508,7.15789474 139.526022,7.01754386 139.307644,7.01754386 L136.141168,7.01754386 C135.677115,7.01754386 135.458737,7.43859649 135.677115,7.80350877 L141.136557,16.5894737 L135.458737,25.8807018 Z" id="MIND-B-X" fill="#000000" class="RVIwHlKR_1"></path>
                <path d="M118.539553,15.138161 C118.539553,15.138161 111.47642,12.8470409 111.040424,15.9867239 C111.040424,15.9867239 110.691628,18.277844 115.749179,18.277844 C115.749179,18.277844 121.329926,18.5324128 121.329926,15.138161 C121.329926,15.138161 121.591524,11.4893402 115.051586,11.4893402 C115.051586,11.4893402 107.726856,11.2347713 108.162852,17.0049995 C108.162852,17.0049995 108.162852,20.9083892 115.138785,21.2478144 C115.138785,21.2478144 123.858702,21.5023833 124.207499,15.138161 C124.207499,15.138161 124.643494,8.94365126 115.051586,8.43451348 C115.051586,8.43451348 107.814055,7.84051939 105.285279,14.5441669 C102.756503,21.2478144 111.696729,25.0299553 115.749179,24.3406273" id="Path" stroke="#222222" stroke-width="2" class="RVIwHlKR_2"></path>
            </g>
        </g>
    </g>
<style data-made-with="vivus-instant">.RVIwHlKR_0{stroke-dasharray:121 123;stroke-dashoffset:122;animation:RVIwHlKR_draw 2000ms linear 0ms forwards;}.RVIwHlKR_1{stroke-dasharray:572 574;stroke-dashoffset:573;animation:RVIwHlKR_draw 2000ms linear 500ms forwards;}.RVIwHlKR_2{stroke-dasharray:103 105;stroke-dashoffset:104;animation:RVIwHlKR_draw 2000ms linear 1000ms forwards;}@keyframes RVIwHlKR_draw{100%{stroke-dashoffset:0;}}@keyframes RVIwHlKR_fade{0%{stroke-opacity:1;}94.44444444444444%{stroke-opacity:1;}100%{stroke-opacity:0;}}</style></svg>